<?xml version="1.0" encoding="UTF-8"?>
<svg width="140px" height="20px" viewBox="0 0 140 20" version="1.1" xmlns="http://www.w3.org/2000/svg" xmlns:xlink="http://www.w3.org/1999/xlink">
    <title>logo</title>
    <defs>
        <rect id="path-1" x="0" y="0" width="27.3684211" height="20" rx="1"></rect>
        <linearGradient x1="49.9900299%" y1="94.6472506%" x2="49.9900299%" y2="0.321710573%" id="linearGradient-3">
            <stop stop-color="#679FF8" offset="0%"></stop>
            <stop stop-color="#206CFF" offset="100%"></stop>
        </linearGradient>
    </defs>
    <g id="网安百科" stroke="none" stroke-width="1" fill="none" fill-rule="evenodd">
        <g id="logo">
            <g id="长亭logo">
                <mask id="mask-2" fill="white">
                    <use xlink:href="#path-1"></use>
                </mask>
                <g id="蒙版"></g>
                <g mask="url(#mask-2)" fill="url(#linearGradient-3)" fill-rule="nonzero" id="形状结合">
                    <g transform="translate(0.000000, 1.800000)">
                        <path d="M13.5,8.1058952 C14.1668941,11.856714 18.1415461,12.9058747 19.1247889,13.1095584 L19.2442223,13.1331049 C19.3093711,13.1452355 19.3446663,13.1504991 19.3446663,13.1504991 C23.9542082,13.8692113 26.4385972,10.9798712 26.9150228,10.356984 L26.9694367,10.2840525 C26.9898265,10.2559301 27,10.2407985 27,10.2407985 C24.6658059,16.3865754 20.6680153,16.4832564 20.2804357,16.4779012 L6.71953522,16.4779012 C6.33159088,16.4832564 2.33019032,16.3865754 0,10.2407985 C0,10.2407985 0.0101735316,10.255913 0.0305633023,10.2840043 L0.0849771501,10.3568563 C0.561402808,10.9790705 3.0457918,13.8654484 7.65533375,13.1504991 C7.65533375,13.1504991 7.69065814,13.1452355 7.75585816,13.1331049 L7.8753838,13.1095584 C8.859375,12.9058747 12.8367904,11.856714 13.5,8.1058952 Z M13.5,0 C14.0937305,3.3518403 18.0687773,3.9455708 18.0687773,3.9455708 L18.0687773,3.9455708 C22.1069869,4.57298815 24.0608235,1.66749844 24.0608235,1.66749844 C22.282907,6.34622583 19.2703265,6.5411728 18.8337736,6.5443818 L18.7939961,6.54412123 C18.7850211,6.54391072 18.7804117,6.54366812 18.7804117,6.54366812 L8.22037255,6.54381999 C8.21809833,6.54390976 8.21470224,6.54402721 8.21021477,6.54413792 L8.14118333,6.54402312 C7.61387503,6.532289 4.68574548,6.25647224 2.9433874,1.66749844 C2.9433874,1.66749844 4.89722396,4.57298815 8.93122271,3.9455708 C8.93122271,3.9455708 12.9062695,3.3518403 13.5,0 Z"></path>
                    </g>
                </g>
            </g>
            <g id="长亭百川云备份-2" transform="translate(33.000000, 0.060000)" fill="#343434" fill-rule="nonzero">
                <path d="M6.71139035,0.14 L5.73590941,7.4 L19.1159094,7.4 L18.78,9.9 L5.4,9.9 L4.5400719,16.3 C4.50424156,16.5666667 4.57289002,16.8 4.74601726,17 C4.91914451,17.2 5.13904147,17.3 5.40570813,17.3 L8.52570813,17.3 L8.18979872,19.8 L3.36979872,19.8 C2.80979872,19.8 2.36244238,19.6066667 2.0277297,19.22 C1.69301703,18.8333333 1.56328254,18.36 1.63852625,17.8 L2.7,9.9 L0,9.9 L0.335909415,7.4 L3.03590941,7.4 L4.01139035,0.14 L6.71139035,0.14 Z M11.8202617,10.94 C11.9794373,11.74 12.2475706,12.4733333 12.6246614,13.14 C13.0017522,13.8066667 13.4624776,14.3966667 14.0068375,14.91 C14.5511975,15.4233333 15.1663065,15.8566667 15.8521646,16.21 C16.5380228,16.5633333 17.2684112,16.8333333 18.04333,17.02 L17.6751733,19.76 C15.0978764,19.2933333 13.0748759,18.3233333 11.6061718,16.85 C10.1374678,15.3766667 9.18883106,13.4066667 8.76026168,10.94 L11.8202617,10.94 Z M7.72499352,3.76 C8.76240929,3.68 9.74564749,3.55666667 10.6747081,3.39 C11.6037687,3.22333333 12.5257663,3.01 13.4407009,2.75 C14.3556355,2.49 15.2848507,2.17333333 16.2283465,1.8 C17.1718423,1.42666667 18.1758375,1 19.2403321,0.52 L18.8856118,3.16 C17.1994129,4 15.4047122,4.68 13.5015097,5.2 C11.5983072,5.72 9.56083201,6.07333333 7.38908411,6.26 L7.72499352,3.76 Z" id="长"></path>
                <path d="M39.3471819,9.4 L23.7671819,9.4 L24.4766226,4.12 L40.0566226,4.12 L39.3471819,9.4 Z M39.8227592,16.28 L32.1027592,16.28 L31.9334608,17.54 C31.8295529,18.3133333 31.545851,18.8866667 31.0823552,19.26 C30.6188593,19.6333333 30.0271114,19.82 29.3071114,19.82 L25.8671114,19.82 L26.1868972,17.44 L28.5868972,17.44 C28.8135639,17.44 28.9865008,17.3933333 29.1057081,17.3 C29.2249154,17.2066667 29.3024342,17.0266667 29.3382646,16.76 L29.4027592,16.28 L21.4227592,16.28 L21.7452322,13.88 L40.1452322,13.88 L39.8227592,16.28 Z M40.2285377,13.26 L37.5285377,13.26 L37.6306542,12.5 L24.6506542,12.5 L24.5485377,13.26 L21.8485377,13.26 L22.2731272,10.1 L40.6531272,10.1 L40.2285377,13.26 Z M34.1702013,0 L34.030463,1.04 L41.950463,1.04 L41.6306772,3.42 L23.1106772,3.42 L23.430463,1.04 L31.330463,1.04 L31.4702013,0 L34.1702013,0 Z M37.078335,6.34 L26.878335,6.34 L26.7654694,7.18 L36.9654694,7.18 L37.078335,6.34 Z" id="亭"></path>
                <path d="M63.67755,3.22 L54.73755,3.22 L54.193317,4.74 L62.513317,4.74 L60.4978605,19.74 L43.8578605,19.74 L45.873317,4.74 L51.473317,4.74 L52.01755,3.22 L45.11755,3.22 L45.4534594,0.72 L64.0134594,0.72 L63.67755,3.22 Z M59.5000949,7.22 L48.2200949,7.22 L47.7148871,10.98 L58.9948871,10.98 L59.5000949,7.22 Z M58.15377,17.24 L58.6589777,13.48 L47.3789777,13.48 L46.87377,17.24 L58.15377,17.24 Z" id="百"></path>
                <path d="M72.7925794,0.28 L71.6666111,8.66 C71.5609116,9.44666667 71.4338684,10.2433333 71.2854817,11.05 C71.1370949,11.8566667 70.9513954,12.6433333 70.7283832,13.41 C70.505371,14.1766667 70.2339521,14.9066667 69.9141265,15.6 C69.594301,16.2933333 69.2063185,16.9233333 68.750179,17.49 C68.2940396,18.0566667 67.7582013,18.5466667 67.1426643,18.96 C66.5271273,19.3733333 65.8134848,19.6733333 65.0017369,19.86 L65.3806427,17.04 C65.9285143,16.7333333 66.3993743,16.33 66.7932229,15.83 C67.1870714,15.33 67.5205751,14.7333333 67.793734,14.04 C68.0668929,13.3466667 68.2963736,12.5566667 68.4821761,11.67 C68.6679787,10.7833333 68.8343321,9.79333333 68.9812365,8.7 L70.1125794,0.28 L72.7925794,0.28 Z M79.3149576,0.56 L76.7593587,19.58 L74.0593587,19.58 L76.6149576,0.56 L79.3149576,0.56 Z M85.9325794,0.28 L83.3017369,19.86 L80.6017369,19.86 L83.2325794,0.28 L85.9325794,0.28 Z" id="川"></path>
                <path d="M101.728395,17.28 L100.752985,14.12 L103.792985,14.12 L104.808395,17.28 L104.472486,19.78 L87.872486,19.78 L88.2083954,17.28 L92.5551963,10.68 L88.3951963,10.68 L88.7311057,8.18 L106.731106,8.18 L106.395196,10.68 L95.5751963,10.68 L91.2883954,17.28 L101.728395,17.28 Z M106.586801,3.3 L90.1868009,3.3 L90.5227103,0.8 L106.92271,0.8 L106.586801,3.3 Z" id="云"></path>
            </g>
        </g>
    </g>
</svg>